<svg width="145" height="40" viewBox="0 0 145 40" fill="none" xmlns="http://www.w3.org/2000/svg">
<g clip-path="url(#clip0_759_252)">
<path d="M17.5658 13.0843L16.9497 13.4543L16.5385 13.7009C16.4115 13.7767 16.3331 13.9174 16.3331 14.0699V39.9971C16.2687 39.9981 16.204 39.9981 16.139 39.9981C15.2173 39.9981 14.3705 39.9864 13.5777 39.964C13.0471 39.949 12.6249 39.4976 12.6249 38.9464V36.6978L12.6349 35.5317V11.8526C12.6349 11.7001 12.7133 11.5597 12.8403 11.4836L13.251 11.237L13.8676 10.867L14.4843 10.4975L15.1004 10.128L15.717 9.75846L16.3331 9.38896L16.9497 9.01945L17.5658 8.64995L18.1825 8.27993L18.7986 7.91043L19.4152 7.54092L20.0313 7.17142L20.6479 6.80191L22.3831 5.70459C25.3291 6.29219 27.698 7.50962 29.4548 9.34544C31.149 11.1161 32.2302 13.4171 32.6873 16.2111L32.3599 16.407L31.7433 16.777H31.7428L31.1267 17.1465L30.5105 17.516L29.8939 17.8856L29.2778 18.2551L28.6612 18.6246L28.0451 18.9941L27.4285 19.3641L26.8118 19.7336L26.1957 20.1031L25.5791 20.4726L24.963 20.8421L24.3464 21.2116L23.9356 21.4582C23.8087 21.534 23.7303 21.6753 23.7303 21.8277V22.3206C23.7303 22.6492 24.0726 22.8545 24.3469 22.6901L24.963 22.3206L25.5796 21.9511L26.1957 21.5816L26.8123 21.2121L27.4285 20.8426L28.0451 20.4726L28.6612 20.1036L29.2778 19.7336L29.8939 19.3641L30.5105 18.9946L31.1267 18.6251L31.7438 18.2551L32.8581 17.5865C32.9147 18.2362 32.9415 18.9093 32.937 19.6061C32.937 20.4492 32.8991 21.2605 32.8246 22.0415L32.3599 22.3196L31.7433 22.6896L31.1267 23.0591L30.5105 23.4286L29.8939 23.7987L29.2778 24.1682H29.2773L28.6612 24.5377L28.0451 24.9072L26.8118 25.6462L26.1957 26.0157L25.5796 26.3852H25.5791L24.963 26.7552L24.3464 27.1247L23.9356 27.3713C23.8087 27.4471 23.7303 27.5884 23.7303 27.7408V28.2337C23.7303 28.4829 23.9271 28.6613 24.142 28.6613C24.2104 28.6613 24.2807 28.643 24.3469 28.603L25.5791 27.864L26.1957 27.4945L26.8123 27.1245L27.4285 26.755L28.0451 26.3855L28.6612 26.0159L29.2778 25.6464L29.8939 25.2769L30.5105 24.9069L31.1267 24.5379L31.7438 24.1679L32.6128 23.6467C31.3066 31.2761 26.082 35.4796 17.5658 35.6241V14.8084C17.5658 14.6559 17.6443 14.5155 17.7712 14.4394L18.1825 14.1928L18.7986 13.8233L19.4152 13.4538L20.0313 13.0843L20.6479 12.7143L21.2645 12.3447L21.8807 11.9752L22.4973 11.6057L23.1134 11.2362L23.73 10.8662L24.3461 10.4967L24.9627 10.1272L25.5789 9.7577L26.1955 9.38819L26.196 9.38769C26.4697 9.2238 26.4697 8.81383 26.196 8.64995L26.1955 8.64944L25.7842 8.40234C25.6573 8.3265 25.5004 8.3265 25.3735 8.40234L24.9627 8.64893L24.3461 9.01894L23.73 9.38845L23.1134 9.75795L22.4973 10.1275L21.8807 10.497L21.2645 10.8665L20.6479 11.236L20.0313 11.606L19.4152 11.9755L18.7986 12.345L18.1825 12.7145L17.5658 13.084V13.0843Z" fill="white"/>
<path d="M38.6927 19.435C38.6927 25.7354 36.7514 30.8907 33.1542 34.4422C29.9618 37.6451 24.9245 39.5395 18.6016 39.9248C18.0393 39.9591 17.5659 39.4932 17.5659 38.9084V36.788C28.0546 36.6129 34.0573 30.3733 34.0573 19.6106C34.0718 17.3185 33.7622 15.2216 33.1378 13.3786C32.4993 11.495 31.5279 9.86247 30.2498 8.52645C28.8806 7.09576 27.1523 5.99742 25.1123 5.26121C23.0345 4.51177 20.6112 4.13183 17.9095 4.13183C16.9828 4.13183 15.9885 4.16236 15.0337 4.21937C13.9184 4.26594 12.878 4.33719 11.9085 4.42728C10.0305 4.60211 8.41666 4.83725 7.04399 5.12939C3.29383 5.9282 0.165672 7.62075 0.00637199 7.67979C0.00220569 7.68157 0 7.68208 0 7.68208C5.08019 0.521768 12.1703 0.215119 12.1703 0.215119C13.8507 0.0639573 15.6494 -0.00195312 17.6806 -0.00195312C24.8177 -0.00195312 29.8998 2.42274 33.2684 5.5732C36.6946 8.72316 38.6927 13.1913 38.6927 19.435Z" fill="white"/>
<path d="M13.6932 5.55784C13.2307 5.56217 12.7778 5.56293 12.3771 5.80342C12.3754 5.80444 12.3734 5.80571 12.3712 5.80724L11.7551 6.17674L11.1385 6.54625L10.5224 6.91575L9.90574 7.28526L9.28962 7.65476L8.67301 8.02427L8.05639 8.39428L7.85911 8.52992C7.73216 8.60576 7.65373 8.74648 7.65373 8.89892V36.7144C7.65373 38.4181 8.97837 39.7799 10.6179 39.8445C10.774 39.8506 10.9299 39.8598 11.0831 39.8608C11.1733 39.8608 11.263 39.8689 11.3519 39.8689V11.116C11.3519 10.9635 11.4304 10.823 11.5573 10.747L11.9685 10.5004L12.5847 10.1304L13.2013 9.76084L13.8174 9.39134L14.434 9.02183L15.0501 8.65233L15.6668 8.28231L16.2834 7.91281L16.8995 7.5433L17.5161 7.1738L18.1322 6.80429L18.7488 6.43478L19.365 6.06528L19.9816 5.69526L20.3923 5.47412L13.6932 5.55708V5.55784Z" fill="white"/>
<path d="M45.1654 26.7461C45.385 27.1161 45.6612 27.4116 45.9945 27.6335C46.327 27.8554 46.6986 28.0129 47.1076 28.1058C47.5167 28.1994 47.9176 28.2458 48.3114 28.2458C48.7729 28.2458 49.2141 28.2206 49.6348 28.1699C50.0549 28.1193 50.4257 28.0231 50.748 27.8826C51.0695 27.7419 51.3251 27.5548 51.5146 27.3202C51.704 27.0861 51.8018 26.7891 51.8097 26.4293C51.8018 26.086 51.7097 25.7931 51.5322 25.5508C51.3548 25.3085 51.1087 25.1016 50.796 24.9296C50.4831 24.7576 50.1096 24.6074 49.6758 24.4784C49.242 24.3502 48.7719 24.2265 48.2663 24.1092C47.7759 24.0081 47.2735 23.8888 46.7608 23.7521C46.2474 23.6155 45.7492 23.4511 45.2666 23.26C44.7833 23.0689 44.3253 22.8442 43.8912 22.5861C43.4574 22.3281 43.0781 22.0237 42.7533 21.672C42.4286 21.3203 42.1742 20.9142 41.9894 20.4528C41.8042 19.9919 41.712 19.4644 41.712 18.8704C41.712 18.2765 41.8081 17.725 42 17.2362C42.1919 16.7481 42.4544 16.3147 42.7857 15.9358C43.117 15.5568 43.5055 15.2286 43.9501 14.9514C44.3944 14.6743 44.8718 14.4476 45.3806 14.2715C45.8893 14.0954 46.4148 13.9684 46.9576 13.8905C47.5 13.8126 48.0392 13.7773 48.5742 13.7846C49.5236 13.8078 50.4012 13.9389 51.2077 14.1771C52.0138 14.4152 52.7113 14.7629 53.299 15.2194C53.8867 15.6762 54.3469 16.2439 54.6783 16.9234C55.0096 17.6034 55.176 18.3918 55.176 19.2896H51.3813C51.3661 18.9755 51.2965 18.6854 51.1722 18.4185C51.048 18.1523 50.8771 17.9187 50.6588 17.7182C50.4404 17.5181 50.177 17.357 49.8679 17.2354C49.5589 17.1138 49.2091 17.0415 48.818 17.0176C48.3886 16.9944 47.9818 17.0143 47.5978 17.0769C47.2137 17.1397 46.8785 17.2413 46.5925 17.382C46.3065 17.5227 46.081 17.7008 45.9153 17.9159C45.7496 18.1309 45.6668 18.3836 45.6668 18.673C45.6668 18.9473 45.7629 19.1822 45.9548 19.3774C46.1467 19.5733 46.4096 19.7453 46.7444 19.8942C47.0789 20.0431 47.4662 20.1754 47.9068 20.293C48.3472 20.4103 48.8121 20.5279 49.3013 20.6452C50.3696 20.9114 51.3065 21.1954 52.1111 21.4964C52.9157 21.7982 53.5857 22.1578 54.1202 22.5764C54.654 22.9956 55.0552 23.4926 55.3221 24.0674C55.589 24.6428 55.723 25.3337 55.723 26.1394C55.7152 26.8596 55.614 27.4958 55.4179 28.0475C55.2221 28.599 54.9525 29.0789 54.6092 29.4858C54.2661 29.8928 53.8609 30.2332 53.3943 30.5071C52.927 30.7809 52.4199 31 51.8736 31.1644C51.3273 31.3283 50.7546 31.4456 50.1559 31.5166C49.5564 31.5863 48.9516 31.6176 48.3413 31.6102C47.7154 31.6102 47.1015 31.555 46.4986 31.4464C45.895 31.3364 45.3244 31.1705 44.786 30.9481C44.2468 30.7254 43.7518 30.4457 43.2996 30.1098C42.8472 29.7739 42.4548 29.3759 42.1235 28.9145C41.7922 28.4537 41.5299 27.9282 41.3378 27.3383C41.1459 26.7484 41.0459 26.0898 41.0385 25.3627H44.8252C44.8326 25.9157 44.9463 26.3766 45.1659 26.7466L45.1654 26.7461Z" fill="white"/>
<path d="M58.5993 12.0808V7.75537H62.3859V12.0808H58.5993ZM62.3862 14.1568V31.2169H58.5995V14.1568H62.3862Z" fill="white"/>
<path d="M69.6566 32.4404C69.6941 32.8847 69.8243 33.2629 70.0465 33.5756C70.2688 33.8876 70.5487 34.1416 70.8881 34.3368C71.2273 34.532 71.6074 34.6719 72.0295 34.7587C72.4515 34.844 72.8808 34.887 73.3181 34.887C74.1089 34.887 74.7755 34.7376 75.3179 34.4391C75.8602 34.1401 76.2994 33.753 76.6347 33.2779C76.9699 32.802 77.2106 32.2717 77.3579 31.6866C77.5045 31.1016 77.5782 30.5262 77.5782 29.9595V29.1464C77.239 29.5388 76.8886 29.8666 76.5271 30.1287C76.1656 30.3916 75.7941 30.603 75.4135 30.7641C75.0329 30.9252 74.6449 31.0405 74.2491 31.111C73.8533 31.182 73.4524 31.2169 73.046 31.2169C71.7496 31.2169 70.6156 30.9942 69.6439 30.5491C68.6717 30.104 67.8636 29.4991 67.2193 28.7331C66.575 27.9679 66.0925 27.0716 65.7724 26.0448C65.4523 25.018 65.2925 23.9224 65.2925 22.7584C65.2925 22.1024 65.3452 21.4244 65.4504 20.7254C65.5555 20.0263 65.729 19.3451 65.9704 18.6814C66.2116 18.018 66.5299 17.3891 66.9257 16.7952C67.3215 16.2012 67.8112 15.6818 68.395 15.2368C68.9787 14.7917 69.6645 14.4387 70.4521 14.1766C71.2398 13.9152 72.1417 13.7842 73.1595 13.7842C74.0109 13.7842 74.8076 13.9351 75.55 14.2354C76.2916 14.5357 76.968 15.0492 77.5787 15.7747V14.1672H81.1551V29.7918C81.1625 31.0041 81.0066 32.1195 80.6883 33.1402C80.3694 34.1602 79.8822 35.0402 79.2261 35.7794C78.5701 36.5182 77.7358 37.0928 76.7239 37.5038C75.7115 37.914 74.5162 38.1196 73.1377 38.1196C72.1429 38.1196 71.2168 37.9865 70.358 37.7216C69.4995 37.4554 68.7479 37.0765 68.1038 36.5856C67.4595 36.0935 66.9422 35.4982 66.5503 34.7997C66.1584 34.0999 65.9364 33.3135 65.8837 32.4396H69.6574L69.6566 32.4404ZM73.1857 27.8529C73.9825 27.8529 74.6623 27.7088 75.2265 27.42C75.7906 27.1319 76.2526 26.7456 76.6136 26.2616C76.9739 25.7784 77.2388 25.2218 77.4084 24.594C77.5773 23.9659 77.662 23.3168 77.662 22.6457C77.6699 22.2245 77.6378 21.7973 77.566 21.3644C77.4944 20.9315 77.3831 20.5124 77.2334 20.107C77.0829 19.7016 76.8927 19.3207 76.6641 18.9657C76.4347 18.6107 76.1619 18.3027 75.8463 18.0414C75.5306 17.7805 75.1699 17.5736 74.7643 17.4215C74.3579 17.2693 73.9109 17.1927 73.4225 17.1927C72.6551 17.1927 72.0069 17.3375 71.4771 17.6256C70.9472 17.9144 70.5146 18.3027 70.1799 18.7901C69.8453 19.2774 69.6007 19.8434 69.4468 20.4872C69.2929 21.131 69.2121 21.8074 69.2049 22.5167C69.1971 23.1646 69.2596 23.8061 69.391 24.4418C69.5226 25.078 69.7441 25.6493 70.0563 26.1568C70.3681 26.6639 70.7796 27.0737 71.291 27.3856C71.8018 27.6976 72.4336 27.8534 73.1857 27.8534V27.8529Z" fill="white"/>
<path d="M88.3868 14.1633L88.3657 16.3457C88.6287 15.9635 88.9218 15.6159 89.2453 15.3033C89.5688 14.9914 89.9298 14.7259 90.3281 14.5073C90.7266 14.289 91.1643 14.1215 91.6417 14.0042C92.1191 13.8869 92.6431 13.8281 93.2148 13.8281C94.3652 13.8281 95.32 13.9884 96.0793 14.3088C96.8385 14.6297 97.4473 15.0733 97.9063 15.64C98.3646 16.2068 98.6881 16.8811 98.8761 17.6626C99.0641 18.4441 99.1582 19.2961 99.1582 20.2184V31.2165H95.3715V19.9214C95.3715 19.0775 95.1348 18.419 94.6627 17.9459C94.1907 17.4728 93.5124 17.2359 92.6281 17.2359C91.9385 17.2359 91.3349 17.3532 90.8182 17.5881C90.3009 17.823 89.8715 18.1411 89.5311 18.5439C89.1899 18.9467 88.9348 19.4163 88.7665 19.9514C88.5976 20.4866 88.5133 21.0554 88.5133 21.6575V31.2168H84.7266V14.1633H88.3871H88.3868Z" fill="white"/>
<path d="M126.244 8.27979V31.2169H122.246V15.1431L116.395 31.2169H112.973L107.099 15.096V31.2169H103.102V8.27979H108.042L114.667 26.9462L120.953 8.27979H126.244Z" fill="white"/>
<path d="M144.723 25.9305C144.542 26.8398 144.243 27.6475 143.825 28.3532C143.407 29.0591 142.885 29.6531 142.26 30.1348C141.635 30.6168 140.914 30.9832 140.097 31.2339C139.279 31.4843 138.385 31.61 137.413 31.61C136.019 31.61 134.809 31.3868 133.783 30.9417C132.757 30.4967 131.906 29.8747 131.229 29.0774C130.552 28.2801 130.048 27.3319 129.719 26.2336C129.39 25.1353 129.233 23.9331 129.248 22.6271C129.24 21.2906 129.433 20.0787 129.827 18.9918C130.22 17.905 130.775 16.9766 131.49 16.2066C132.205 15.4365 133.061 14.84 134.056 14.4181C135.051 13.9961 136.151 13.7847 137.357 13.7847C138.298 13.7847 139.147 13.9157 139.904 14.1771C140.662 14.4384 141.33 14.8018 141.91 15.266C142.49 15.7309 142.988 16.2832 143.402 16.9234C143.816 17.5637 144.147 18.262 144.396 19.0191C144.644 19.7769 144.816 20.579 144.91 21.4262C145.004 22.2734 145.025 23.1343 144.973 24.0079H133.119C133.157 24.5897 133.272 25.133 133.464 25.6394C133.656 26.1458 133.931 26.5904 134.289 26.9713C134.647 27.3523 135.093 27.6526 135.628 27.8724C136.163 28.0923 136.788 28.2023 137.504 28.2023C138.415 28.2023 139.168 28.0213 139.763 27.6582C140.358 27.295 140.776 26.7197 141.018 25.9303H144.724L144.723 25.9305ZM137.228 17.1927C136.686 17.1927 136.183 17.2848 135.72 17.4678C135.256 17.6515 134.849 17.9088 134.499 18.2406C134.149 18.5725 133.857 18.9684 133.623 19.4285C133.39 19.8894 133.235 20.3966 133.16 20.9501H140.991C141.005 20.4742 140.913 20.01 140.714 19.5576C140.514 19.1048 140.241 18.7028 139.895 18.3521C139.548 18.0012 139.145 17.72 138.686 17.509C138.226 17.2988 137.74 17.1929 137.228 17.1929L137.228 17.1927Z" fill="white"/>
</g>
<defs>
<clipPath id="clip0_759_252">
<rect width="145" height="40" fill="white" transform="translate(0 -0.00195312)"/>
</clipPath>
</defs>
</svg>
