<?xml version="1.0" encoding="UTF-8"?>
<svg id="Layer_2" data-name="Layer 2" xmlns="http://www.w3.org/2000/svg" viewBox="0 0 1578.8 1571.83">
  <defs>
    <style>
      .cls-1 {
        fill: none;
      }
    </style>
  </defs>
  <g id="Layer_5" data-name="Layer 5">
    <g>
      <path class="cls-1" d="M666.45,1400.1v-847.14c0-5.99,3.2-11.51,8.38-14.5l16.78-9.69,25.14-14.54,25.16-14.52,25.14-14.52,25.16-14.52,25.14-14.52,25.16-14.54,25.16-14.52,25.14-14.52,25.16-14.52,25.14-14.52,25.16-14.52,25.14-14.52,25.16-14.54,16.76-9.69c5.18-2.98,11.58-2.98,16.76,0l16.78,9.71.02.02c11.17,6.44,11.17,22.55,0,28.99l-.02.02-25.16,14.52-25.14,14.52-25.16,14.52-25.14,14.52-25.16,14.54-25.14,14.52-25.16,14.52-25.14,14.52-25.16,14.52-25.16,14.54-25.14,14.52-25.16,14.52-25.14,14.52-16.78,9.69c-5.18,2.98-8.38,8.51-8.38,14.5v817.97c-6.16.09-12.36.15-18.61.15"/>
      <path class="cls-1" d="M1295.24,891.7l-25.16,14.52-25.14,14.52-25.16,14.54-25.14,14.52h-.02l-25.14,14.52-25.14,14.52-50.32,29.04-25.14,14.52-25.14,14.52h-.02l-25.14,14.54-25.16,14.52-16.76,9.68c-5.19,3-8.38,8.53-8.38,14.52v19.37c0,12.91,13.97,20.98,25.15,14.53h0s50.28-29.04,50.28-29.04l25.16-14.52,25.16-14.54,25.14-14.52,25.16-14.52,25.14-14.52,25.16-14.52,25.14-14.52,25.16-14.54,25.14-14.5,25.18-14.54,35.46-20.48c3.63-20.4,6.5-41.44,8.64-63.09l-18.96,10.93-25.16,14.54Z"/>
      <path class="cls-1" d="M1295.24,659.38h-.02l-25.14,14.52-25.14,14.52-25.16,14.52-25.14,14.52-25.16,14.52-25.14,14.52-25.16,14.54-25.16,14.52-25.14,14.52-25.16,14.52-25.14,14.52-25.16,14.52-16.76,9.68c-5.19,3-8.38,8.53-8.38,14.52v19.37c0,12.91,13.98,20.98,25.16,14.52l25.14-14.52,25.16-14.52,25.14-14.52,25.16-14.52,25.14-14.52,25.16-14.54,25.14-14.5,25.16-14.54,25.14-14.52,25.16-14.52,25.14-14.52,25.18-14.54,45.48-26.26c-1.67-18.51-4.01-36.53-6.98-54.06l-13.35,7.71-25.16,14.54Z"/>
      <path d="M716.75,514.24l-25.14,14.54-16.78,9.69c-5.18,2.98-8.38,8.51-8.38,14.5v1018.83c-2.63.04-5.27.04-7.92.04-37.61,0-72.16-.46-104.51-1.34-21.65-.59-38.88-18.33-38.88-39.99v-88.36s.41-45.82.41-45.82V465.84c0-5.99,3.2-11.51,8.38-14.5l16.76-9.69,25.16-14.54,25.16-14.52,25.14-14.52,25.16-14.52,25.14-14.52,25.16-14.52,25.14-14.52,25.16-14.54,25.14-14.52,25.16-14.52,25.14-14.52,25.16-14.52,70.8-43.12c120.21,23.09,216.87,70.93,288.55,143.07,69.13,69.58,113.25,160,131.9,269.79l-13.36,7.7-25.16,14.54h-.02l-25.14,14.52-25.14,14.52-25.16,14.52-25.14,14.52-25.16,14.52-25.14,14.52-25.16,14.54-25.16,14.52-25.14,14.52-25.16,14.52-25.14,14.52-25.16,14.52-16.76,9.69c-5.18,2.98-8.38,8.53-8.38,14.52v19.37c0,12.91,13.97,20.98,25.16,14.52l25.14-14.52,25.16-14.52,25.14-14.52,25.16-14.52,25.14-14.52,25.16-14.54,25.14-14.5,25.16-14.54,25.14-14.52,25.16-14.52,25.14-14.52,25.18-14.54,45.47-26.27c2.31,25.53,3.4,51.98,3.22,79.36,0,33.13-1.55,65.01-4.59,95.7l-18.96,10.93-25.16,14.54-25.16,14.52-25.14,14.52-25.16,14.54-25.14,14.52h-.02l-25.14,14.52-25.14,14.52-50.32,29.04-25.14,14.52-25.14,14.52h-.02l-25.14,14.54-25.16,14.52-16.76,9.69c-5.18,2.98-8.38,8.53-8.38,14.52v19.37c0,9.79,8.03,16.8,16.8,16.8,2.79,0,5.66-.72,8.36-2.29l50.28-29.04,25.16-14.52,25.16-14.54,25.14-14.52,25.16-14.52,25.14-14.52,25.16-14.52,25.14-14.52,25.16-14.54,25.14-14.5,25.18-14.54,35.46-20.48c-53.3,299.8-266.48,464.98-613.97,470.66v-817.97c0-5.99,3.2-11.51,8.38-14.5l16.78-9.69,25.14-14.52,25.16-14.52,25.14-14.52,25.16-14.54,25.16-14.52,25.14-14.52,25.16-14.52,25.14-14.52,25.16-14.54,25.14-14.52,25.16-14.52,25.14-14.52,25.16-14.52.02-.02c11.17-6.44,11.17-22.55,0-28.99l-.02-.02-16.78-9.71c-5.18-2.98-11.58-2.98-16.76,0l-16.76,9.69-25.16,14.54-25.14,14.52-25.16,14.52-25.14,14.52-25.16,14.52-25.14,14.52-25.16,14.52-25.16,14.54-25.14,14.52-25.16,14.52-25.14,14.52-25.16,14.52Z"/>
      <path d="M1578.8,763.79c0,247.58-79.21,450.16-225.99,589.72-130.26,125.86-335.8,200.3-593.8,215.44-22.94,1.35-42.26-16.96-42.26-39.94v-83.32c427.98-6.88,672.91-252.07,672.91-675,.59-90.07-12.04-172.47-37.52-244.89-26.05-74.02-65.69-138.17-117.84-190.67-55.87-56.22-126.39-99.38-209.63-128.31-84.78-29.45-183.66-44.38-293.9-44.38-37.81,0-78.38,1.2-117.34,3.44-45.51,1.83-87.96,4.63-127.52,8.17-76.63,6.87-142.48,16.11-198.49,27.59C134.4,233.03,6.76,299.54.26,301.86c-.17.07-.26.09-.26.09C207.29,20.58,496.59,8.53,496.59,8.53,565.16,2.59,638.55,0,721.43,0c291.22,0,498.59,95.28,636.04,219.08,139.8,123.78,221.33,299.36,221.33,544.71Z"/>
      <path d="M558.73,218.48c-18.87.17-37.35.2-53.7,9.65-.07.04-.15.09-.24.15l-25.14,14.52-25.16,14.52-25.14,14.52-25.16,14.52-25.14,14.52-25.16,14.52-25.16,14.54-8.05,5.33c-5.18,2.98-8.38,8.51-8.38,14.5v1093.03c0,66.95,54.05,120.46,120.95,123,6.37.24,12.73.6,18.98.64,3.68,0,7.34.32,10.97.32V436.89c0-5.99,3.2-11.51,8.38-14.5l16.78-9.69,25.14-14.54,25.16-14.52,25.14-14.52,25.16-14.52,25.14-14.52,25.16-14.54,25.16-14.52,25.14-14.52,25.16-14.52,25.14-14.52,25.16-14.52,25.14-14.52,25.16-14.54,16.76-8.69-273.35,3.26Z"/>
    </g>
  </g>
</svg>