<svg width="85" height="24" viewBox="0 0 85 24" fill="none" xmlns="http://www.w3.org/2000/svg">
<g clip-path="url(#clip0_108_173)">
<path d="M10.2972 7.85184L9.93605 8.07385L9.69498 8.2218C9.62056 8.26731 9.57459 8.35174 9.57459 8.4432V23.9995C9.53681 24.0002 9.49888 24.0002 9.46081 24.0002C8.92048 24.0002 8.42412 23.9931 7.95936 23.9797C7.64832 23.9707 7.40079 23.6998 7.40079 23.3691V22.0199L7.40668 21.3203V7.11283C7.40668 7.02137 7.45265 6.93709 7.52707 6.89143L7.76785 6.74348L8.12931 6.52147L8.49078 6.29976L8.85195 6.07806L9.21342 5.85636L9.57459 5.63465L9.93605 5.41295L10.2972 5.19125L10.6587 4.96924L11.0199 4.74754L11.3813 4.52583L11.7425 4.30413L12.104 4.08243L13.1211 3.42403C14.8481 3.77659 16.2368 4.50705 17.2666 5.60855C18.2597 6.67095 18.8936 8.05156 19.1615 9.72792L18.9696 9.84549L18.6081 10.0675H18.6078L18.2467 10.2892L17.8855 10.5109L17.524 10.7326L17.1629 10.9543L16.8014 11.176L16.4402 11.3977L16.0788 11.6197L15.7173 11.8414L15.3561 12.0631L14.9947 12.2848L14.6335 12.5065L14.272 12.7282L14.0312 12.8762C13.9568 12.9217 13.9108 13.0064 13.9108 13.0979V13.3937C13.9108 13.5908 14.1115 13.714 14.2723 13.6154L14.6335 13.3937L14.9949 13.172L15.3561 12.9503L15.7176 12.7286L16.0788 12.5068L16.4402 12.2848L16.8014 12.0634L17.1629 11.8414L17.524 11.6197L17.8855 11.398L18.2467 11.1763L18.6084 10.9543L19.2617 10.5532C19.2949 10.943 19.3105 11.3469 19.3079 11.7649C19.3079 12.2708 19.2857 12.7576 19.242 13.2262L18.9696 13.3931L18.6081 13.6151L18.2467 13.8368L17.8855 14.0585L17.524 14.2805L17.1629 14.5022H17.1626L16.8014 14.7239L16.4402 14.9456L15.7173 15.389L15.3561 15.6107L14.9949 15.8324H14.9947L14.6335 16.0544L14.272 16.2761L14.0312 16.4241C13.9568 16.4696 13.9108 16.5543 13.9108 16.6458V16.9415C13.9108 17.091 14.0262 17.198 14.1522 17.198C14.1923 17.198 14.2335 17.187 14.2723 17.1631L14.9947 16.7197L15.3561 16.498L15.7176 16.276L16.0788 16.0543L16.4402 15.8326L16.8014 15.6108L17.1629 15.3891L17.524 15.1674L17.8855 14.9454L18.2467 14.724L18.6084 14.502L19.1179 14.1893C18.3521 18.7669 15.2895 21.289 10.2972 21.3757V8.8863C10.2972 8.79484 10.3432 8.71056 10.4176 8.66491L10.6587 8.51695L11.0199 8.29525L11.3813 8.07354L11.7425 7.85184L12.104 7.62983L12.4654 7.40813L12.8266 7.18643L13.1881 6.96472L13.5492 6.74302L13.9107 6.52101L14.2719 6.29931L14.6333 6.0776L14.9945 5.8559L15.356 5.6342L15.3563 5.63389C15.5167 5.53556 15.5167 5.28958 15.3563 5.19125L15.356 5.19094L15.1149 5.04268C15.0405 4.99718 14.9485 4.99718 14.8741 5.04268L14.6333 5.19064L14.2719 5.41265L13.9107 5.63435L13.5492 5.85605L13.1881 6.07776L12.8266 6.29946L12.4654 6.52116L12.104 6.74287L11.7425 6.96487L11.3813 7.18658L11.0199 7.40828L10.6587 7.62998L10.2972 7.85169V7.85184Z" fill="black"/>
<path d="M22.6819 11.6622C22.6819 15.4424 21.5439 18.5356 19.4352 20.6665C17.5638 22.5882 14.6109 23.7249 10.9044 23.956C10.5748 23.9766 10.2972 23.6971 10.2972 23.3462V22.074C16.4458 21.9689 19.9646 18.2252 19.9646 11.7675C19.9731 10.3923 19.7917 9.13412 19.4256 8.02835C19.0513 6.89815 18.4819 5.91865 17.7326 5.11704C16.93 4.25863 15.9168 3.59963 14.721 3.1579C13.503 2.70823 12.0824 2.48027 10.4986 2.48027C9.95545 2.48027 9.3726 2.49859 8.81287 2.53279C8.15905 2.56073 7.54919 2.60349 6.98085 2.65754C5.87994 2.76244 4.93391 2.90352 4.12923 3.07881C1.93086 3.55809 0.0971179 4.57362 0.0037353 4.60905C0.00129299 4.61012 0 4.61042 0 4.61042C2.97804 0.314233 7.13429 0.130243 7.13429 0.130243C8.1194 0.0395463 9.17376 0 10.3645 0C14.5483 0 17.5275 1.45481 19.5022 3.34509C21.5106 5.23507 22.6819 7.91597 22.6819 11.6622Z" fill="black"/>
<path d="M8.02701 3.33593C7.75592 3.33853 7.49042 3.33899 7.25553 3.48328C7.25452 3.48389 7.25338 3.48465 7.25208 3.48557L6.89091 3.70727L6.52944 3.92897L6.16827 4.15068L5.80681 4.37238L5.44563 4.59408L5.08417 4.81579L4.72271 5.0378L4.60706 5.11918C4.53264 5.16468 4.48666 5.24912 4.48666 5.34058V22.0299C4.48666 23.0521 5.26318 23.8691 6.2243 23.9079C6.31581 23.9116 6.40719 23.9171 6.49698 23.9177C6.54984 23.9177 6.60243 23.9226 6.65458 23.9226V6.6708C6.65458 6.57934 6.70055 6.49505 6.77497 6.4494L7.01604 6.30144L7.37721 6.07944L7.73868 5.85773L8.09985 5.63603L8.46132 5.41433L8.82249 5.19262L9.18395 4.97061L9.54541 4.74891L9.90659 4.52721L10.2681 4.3055L10.6292 4.0838L10.9907 3.8621L11.3519 3.64039L11.7133 3.41838L11.9541 3.2857L8.02701 3.33547V3.33593Z" fill="black"/>
<path d="M26.4763 16.0489C26.605 16.2709 26.7669 16.4482 26.9623 16.5813C27.1572 16.7145 27.375 16.809 27.6148 16.8647C27.8546 16.9209 28.0896 16.9487 28.3205 16.9487C28.591 16.9487 28.8496 16.9336 29.0963 16.9032C29.3425 16.8728 29.5599 16.8151 29.7488 16.7308C29.9373 16.6464 30.0872 16.5342 30.1982 16.3934C30.3093 16.2529 30.3666 16.0747 30.3712 15.8588C30.3666 15.6528 30.3126 15.4771 30.2086 15.3317C30.1045 15.1864 29.9603 15.0622 29.777 14.959C29.5935 14.8558 29.3746 14.7657 29.1203 14.6883C28.866 14.6114 28.5904 14.5371 28.2941 14.4668C28.0066 14.4061 27.7121 14.3345 27.4115 14.2525C27.1106 14.1705 26.8185 14.0719 26.5356 13.9572C26.2523 13.8426 25.9838 13.7077 25.7294 13.5529C25.4751 13.3981 25.2527 13.2155 25.0623 13.0045C24.872 12.7934 24.7228 12.5498 24.6145 12.2729C24.5059 11.9964 24.4519 11.6799 24.4519 11.3235C24.4519 10.9671 24.5082 10.6363 24.6207 10.343C24.7332 10.0501 24.887 9.79007 25.0813 9.56271C25.2755 9.33536 25.5032 9.13839 25.7638 8.97212C26.0243 8.80584 26.3042 8.66979 26.6024 8.56413C26.9007 8.45847 27.2087 8.38228 27.5269 8.33556C27.8448 8.28884 28.1609 8.26761 28.4745 8.27204C29.0311 8.28594 29.5455 8.36457 30.0183 8.50749C30.4909 8.6504 30.8997 8.85897 31.2442 9.1329C31.5887 9.40697 31.8586 9.74762 32.0528 10.1553C32.247 10.5633 32.3446 11.0363 32.3446 11.575H30.1201C30.1111 11.3866 30.0703 11.2125 29.9975 11.0523C29.9247 10.8926 29.8245 10.7525 29.6965 10.6321C29.5685 10.5121 29.4141 10.4155 29.2329 10.3425C29.0518 10.2695 28.8467 10.2261 28.6175 10.2118C28.3658 10.1979 28.1273 10.2098 27.9021 10.2474C27.677 10.2851 27.4805 10.346 27.3128 10.4304C27.1452 10.5149 27.013 10.6218 26.9159 10.7508C26.8188 10.8798 26.7702 11.0314 26.7702 11.205C26.7702 11.3696 26.8265 11.5106 26.939 11.6277C27.0515 11.7452 27.2057 11.8485 27.4019 11.9378C27.598 12.0271 27.825 12.1065 28.0833 12.177C28.3415 12.2474 28.614 12.318 28.9008 12.3884C29.527 12.5481 30.0762 12.7185 30.5479 12.8991C31.0195 13.0802 31.4123 13.2959 31.7257 13.5471C32.0386 13.7986 32.2737 14.0968 32.4302 14.4417C32.5867 14.7869 32.6652 15.2015 32.6652 15.6849C32.6606 16.117 32.6013 16.4987 32.4864 16.8298C32.3716 17.1606 32.2135 17.4486 32.0123 17.6928C31.8111 17.9369 31.5737 18.1412 31.3001 18.3055C31.0262 18.4698 30.7289 18.6012 30.4087 18.6999C30.0884 18.7982 29.7527 18.8686 29.4017 18.9112C29.0503 18.953 28.6958 18.9718 28.338 18.9674C27.9711 18.9674 27.6112 18.9343 27.2578 18.8691C26.904 18.8031 26.5695 18.7036 26.2539 18.5701C25.9378 18.4365 25.6476 18.2687 25.3825 18.0671C25.1173 17.8656 24.8873 17.6268 24.6931 17.35C24.4989 17.0735 24.3451 16.7581 24.2325 16.4042C24.12 16.0503 24.0614 15.6551 24.0571 15.2189H26.2769C26.2812 15.5507 26.3478 15.8272 26.4766 16.0492L26.4763 16.0489Z" fill="black"/>
<path d="M34.3513 7.24964V4.6544H36.5711V7.24964H34.3513ZM36.5712 8.49527V18.7313H34.3514V8.49527H36.5712Z" fill="black"/>
<path d="M40.8332 19.4653C40.8552 19.7319 40.9315 19.9588 41.0618 20.1465C41.1921 20.3336 41.3561 20.486 41.5551 20.6031C41.754 20.7203 41.9768 20.8042 42.2242 20.8563C42.4716 20.9075 42.7233 20.9333 42.9796 20.9333C43.4432 20.9333 43.8339 20.8436 44.1519 20.6645C44.4698 20.4851 44.7273 20.2529 44.9238 19.9678C45.1203 19.6823 45.2614 19.3641 45.3477 19.013C45.4337 18.662 45.4769 18.3168 45.4769 17.9768V17.4889C45.2781 17.7244 45.0726 17.921 44.8607 18.0783C44.6488 18.236 44.431 18.3629 44.2079 18.4596C43.9848 18.5562 43.7574 18.6254 43.5253 18.6677C43.2933 18.7103 43.0583 18.7312 42.8201 18.7312C42.0601 18.7312 41.3954 18.5976 40.8257 18.3305C40.2558 18.0635 39.7821 17.7005 39.4044 17.2409C39.0268 16.7818 38.7439 16.244 38.5562 15.628C38.3686 15.0119 38.2749 14.3545 38.2749 13.6561C38.2749 13.2625 38.3058 12.8557 38.3675 12.4363C38.4291 12.0169 38.5308 11.6081 38.6723 11.2099C38.8137 10.8119 39.0003 10.4346 39.2323 10.0782C39.4644 9.72181 39.7514 9.41018 40.0936 9.14313C40.4358 8.87607 40.8378 8.6643 41.2995 8.50703C41.7613 8.35022 42.29 8.27158 42.8866 8.27158C43.3857 8.27158 43.8528 8.36213 44.2879 8.5423C44.7227 8.72247 45.1192 9.0306 45.4772 9.46591V8.50138H47.5737V17.8761C47.578 18.6035 47.4866 19.2728 47.3 19.8852C47.1131 20.4972 46.8275 21.0252 46.4429 21.4687C46.0583 21.912 45.5693 22.2568 44.9761 22.5034C44.3826 22.7495 43.6819 22.8729 42.8738 22.8729C42.2907 22.8729 41.7478 22.793 41.2444 22.6341C40.7411 22.4743 40.3005 22.247 39.9229 21.9525C39.5452 21.6572 39.242 21.3 39.0122 20.8809C38.7825 20.461 38.6524 19.9892 38.6215 19.4649H40.8336L40.8332 19.4653ZM42.902 16.7128C43.369 16.7128 43.7676 16.6264 44.0983 16.4531C44.429 16.2802 44.6998 16.0485 44.9114 15.758C45.1226 15.4681 45.2779 15.1342 45.3773 14.7575C45.4763 14.3806 45.526 13.9911 45.526 13.5885C45.5306 13.3358 45.5118 13.0794 45.4697 12.8197C45.4278 12.56 45.3625 12.3085 45.2748 12.0653C45.1866 11.822 45.0751 11.5935 44.941 11.3805C44.8066 11.1675 44.6467 10.9827 44.4616 10.8259C44.2766 10.6694 44.0651 10.5453 43.8273 10.454C43.5891 10.3626 43.3271 10.3167 43.0408 10.3167C42.5909 10.3167 42.211 10.4036 41.9003 10.5764C41.5897 10.7497 41.3362 10.9827 41.1399 11.2751C40.9438 11.5675 40.8004 11.9071 40.7102 12.2934C40.62 12.6797 40.5726 13.0855 40.5684 13.5111C40.5638 13.8998 40.6005 14.2848 40.6775 14.6662C40.7546 15.0479 40.8845 15.3907 41.0675 15.6951C41.2503 15.9994 41.4915 16.2453 41.7913 16.4325C42.0907 16.6197 42.4611 16.7131 42.902 16.7131V16.7128Z" fill="black"/>
<path d="M51.813 8.49924L51.8006 9.80869C51.9548 9.57936 52.1266 9.37078 52.3162 9.18328C52.5059 8.99609 52.7175 8.83683 52.9509 8.70567C53.1845 8.57467 53.4411 8.4742 53.721 8.40381C54.0009 8.33342 54.308 8.29815 54.6432 8.29815C55.3176 8.29815 55.8773 8.39434 56.3223 8.58658C56.7674 8.77912 57.1243 9.04525 57.3934 9.38529C57.662 9.72533 57.8517 10.13 57.9619 10.5989C58.0721 11.0678 58.1272 11.579 58.1272 12.1323V18.7312H55.9074V11.9541C55.9074 11.4478 55.7687 11.0526 55.492 10.7688C55.2153 10.485 54.8176 10.3428 54.2993 10.3428C53.895 10.3428 53.5411 10.4132 53.2383 10.5541C52.935 10.695 52.6833 10.8859 52.4837 11.1276C52.2838 11.3693 52.1342 11.651 52.0355 11.9721C51.9365 12.2932 51.8871 12.6345 51.8871 12.9958V18.7313H49.6673V8.49924H51.8131H51.813Z" fill="black"/>
<path d="M74.0048 4.96909V18.7313H71.6617V9.08709L68.2316 18.7313H66.2254L62.7823 9.05884V18.7313H60.4391V4.96909H63.335L67.2185 16.1689L70.9032 4.96909H74.0048Z" fill="black"/>
<path d="M84.8378 15.5594C84.7315 16.1049 84.5561 16.5896 84.311 17.013C84.0659 17.4365 83.7603 17.7929 83.3938 18.082C83.0273 18.3711 82.6045 18.591 82.1255 18.7414C81.6461 18.8917 81.122 18.9671 80.5524 18.9671C79.7354 18.9671 79.0258 18.8332 78.4247 18.5661C77.8232 18.2991 77.3241 17.9259 76.9272 17.4475C76.5302 16.9692 76.235 16.4002 76.0423 15.7412C75.8492 15.0822 75.7571 14.3609 75.766 13.5773C75.7614 12.7754 75.8747 12.0483 76.1052 11.3962C76.3357 10.7441 76.6609 10.1871 77.0803 9.72502C77.4997 9.26299 78.0011 8.90509 78.5845 8.65193C79.1679 8.39877 79.8127 8.27189 80.5195 8.27189C81.0713 8.27189 81.569 8.35052 82.0129 8.50733C82.4568 8.66414 82.8488 8.88218 83.1887 9.16069C83.5286 9.43965 83.8204 9.77098 84.0632 10.1551C84.306 10.5393 84.5002 10.9583 84.6459 11.4125C84.7916 11.8672 84.8921 12.3485 84.9473 12.8568C85.0025 13.3651 85.0147 13.8817 84.9839 14.4058H78.0354C78.0574 14.7549 78.1247 15.0809 78.2374 15.3847C78.3499 15.6886 78.5114 15.9553 78.7211 16.1839C78.9307 16.4125 79.1925 16.5926 79.5061 16.7246C79.8194 16.8565 80.1859 16.9224 80.6056 16.9224C81.1397 16.9224 81.5813 16.8139 81.9302 16.596C82.279 16.3781 82.5241 16.0329 82.6654 15.5592H84.8382L84.8378 15.5594ZM80.4439 10.3167C80.126 10.3167 79.8312 10.372 79.5598 10.4817C79.2882 10.592 79.0495 10.7464 78.8442 10.9455C78.6388 11.1446 78.4677 11.3821 78.3309 11.6582C78.1941 11.9347 78.1035 12.239 78.0595 12.5711H82.6499C82.6584 12.2856 82.6044 12.0071 82.4873 11.7356C82.3702 11.464 82.2102 11.2227 82.0072 11.0123C81.804 10.8018 81.5678 10.6331 81.2985 10.5065C81.0291 10.3804 80.7443 10.3168 80.4441 10.3168L80.4439 10.3167Z" fill="black"/>
</g>
<defs>
<clipPath id="clip0_108_173">
<rect width="85" height="24" fill="white"/>
</clipPath>
</defs>
</svg>
